<svg width="100" height="36" viewBox="0 0 67 24" fill="none" xmlns="http://www.w3.org/2000/svg">
<path d="M0.0640259 14V0.320007H2.97103L7.75903 6.03901L12.528 0.320007H15.454V14H12.699V4.40501L7.75903 10.314L2.80003 4.42401V14H0.0640259Z" fill="#D9EFFA"/>
<path d="M20.389 14C19.8823 14 19.42 13.8797 19.002 13.639C18.5966 13.3857 18.2673 13.0563 18.014 12.651C17.7733 12.233 17.653 11.7707 17.653 11.264V3.05601C17.653 2.54934 17.7733 2.09334 18.014 1.68801C18.2673 1.27001 18.5966 0.940674 19.002 0.700007C19.42 0.446674 19.8823 0.320007 20.389 0.320007H28.597C29.091 0.320007 29.5406 0.446674 29.946 0.700007C30.364 0.940674 30.6996 1.27001 30.953 1.68801C31.2063 2.09334 31.333 2.54934 31.333 3.05601V11.264C31.333 11.7707 31.2063 12.233 30.953 12.651C30.6996 13.0563 30.364 13.3857 29.946 13.639C29.5406 13.8797 29.091 14 28.597 14H20.389ZM20.503 11.245H28.445C28.483 11.245 28.5083 11.2387 28.521 11.226C28.5463 11.2007 28.559 11.169 28.559 11.131V3.18901C28.559 3.15101 28.5463 3.12567 28.521 3.11301C28.5083 3.08767 28.483 3.07501 28.445 3.07501H20.503C20.465 3.07501 20.4333 3.08767 20.408 3.11301C20.3953 3.12567 20.389 3.15101 20.389 3.18901V11.131C20.389 11.169 20.3953 11.2007 20.408 11.226C20.4333 11.2387 20.465 11.245 20.503 11.245Z" fill="#D9EFFA"/>
<path d="M33.4254 14V0.320007H36.3324L44.3314 9.85801V0.320007H47.1054V14H44.1984L36.1614 4.42401V14H33.4254Z" fill="#D9EFFA"/>
<path d="M48.8539 14V0.320007H51.5709V14H48.8539Z" fill="#D9EFFA"/>
<path d="M56.0334 14C55.5268 14 55.0644 13.8797 54.6464 13.639C54.2411 13.3857 53.9118 13.0563 53.6584 12.651C53.4178 12.233 53.2974 11.7707 53.2974 11.264V3.05601C53.2974 2.54934 53.4178 2.09334 53.6584 1.68801C53.9118 1.27001 54.2411 0.940674 54.6464 0.700007C55.0644 0.446674 55.5268 0.320007 56.0334 0.320007H64.2224C64.7291 0.320007 65.1851 0.446674 65.5904 0.700007C66.0084 0.940674 66.3441 1.27001 66.5974 1.68801C66.8508 2.09334 66.9774 2.54934 66.9774 3.05601V4.23401H64.2034V3.18901C64.2034 3.15101 64.1908 3.12567 64.1654 3.11301C64.1528 3.08767 64.1274 3.07501 64.0894 3.07501H56.1474C56.1094 3.07501 56.0778 3.08767 56.0524 3.11301C56.0398 3.12567 56.0334 3.15101 56.0334 3.18901V11.131C56.0334 11.169 56.0398 11.2007 56.0524 11.226C56.0778 11.2387 56.1094 11.245 56.1474 11.245H64.0894C64.1274 11.245 64.1528 11.2387 64.1654 11.226C64.1908 11.2007 64.2034 11.169 64.2034 11.131V8.88901H61.1824V6.13401H66.9774V11.264C66.9774 11.7707 66.8508 12.233 66.5974 12.651C66.3441 13.0563 66.0084 13.3857 65.5904 13.639C65.1851 13.8797 64.7291 14 64.2224 14H56.0334Z" fill="#D9EFFA"/>
<path d="M4.74703 16.718H6.91603C7.48603 16.718 7.92703 16.865 8.23903 17.159C8.55703 17.453 8.71603 17.855 8.71603 18.365C8.71603 18.731 8.62603 19.022 8.44603 19.238C8.26603 19.454 8.02303 19.607 7.71703 19.697V19.742C8.08303 19.826 8.37703 19.988 8.59903 20.228C8.82103 20.462 8.93203 20.795 8.93203 21.227C8.93203 21.485 8.89003 21.722 8.80603 21.938C8.72203 22.154 8.60203 22.343 8.44603 22.505C8.29003 22.661 8.10103 22.784 7.87903 22.874C7.66303 22.958 7.42303 23 7.15903 23H4.74703V16.718ZM6.85303 22.226C7.18903 22.226 7.44703 22.157 7.62703 22.019C7.80703 21.881 7.89703 21.659 7.89703 21.353V21.029C7.89703 20.723 7.80703 20.501 7.62703 20.363C7.44703 20.225 7.18903 20.156 6.85303 20.156H5.73703V22.226H6.85303ZM6.70903 19.418C7.02703 19.418 7.26703 19.358 7.42903 19.238C7.59703 19.112 7.68103 18.905 7.68103 18.617V18.293C7.68103 18.005 7.59703 17.801 7.42903 17.681C7.26703 17.555 7.02703 17.492 6.70903 17.492H5.73703V19.418H6.70903Z" fill="#39A1B8"/>
<path d="M11.5925 23V20.633L9.50451 16.718H10.6295L11.4305 18.284L12.0785 19.625H12.1325L12.7895 18.284L13.5905 16.718H14.6885L12.6005 20.633V23H11.5925Z" fill="#39A1B8"/>
<path d="M24.1945 19.994L24.2215 18.104H24.1495L22.8895 21.335L21.6295 18.104H21.5575L21.5845 19.994V23H20.6935V16.718H21.9265L22.8895 19.211H22.9525L23.9245 16.718H25.0855V23H24.1945V19.994Z" fill="#39A1B8"/>
<path d="M28.286 23.108C27.89 23.108 27.545 23.036 27.251 22.892C26.963 22.742 26.723 22.529 26.531 22.253C26.345 21.977 26.207 21.638 26.117 21.236C26.027 20.834 25.982 20.375 25.982 19.859C25.982 19.349 26.027 18.893 26.117 18.491C26.207 18.083 26.345 17.741 26.531 17.465C26.723 17.189 26.963 16.979 27.251 16.835C27.545 16.685 27.89 16.61 28.286 16.61C28.682 16.61 29.024 16.685 29.312 16.835C29.606 16.979 29.846 17.189 30.032 17.465C30.224 17.741 30.365 18.083 30.455 18.491C30.545 18.893 30.59 19.349 30.59 19.859C30.59 20.375 30.545 20.834 30.455 21.236C30.365 21.638 30.224 21.977 30.032 22.253C29.846 22.529 29.606 22.742 29.312 22.892C29.024 23.036 28.682 23.108 28.286 23.108ZM28.286 22.271C28.736 22.271 29.054 22.103 29.24 21.767C29.426 21.425 29.519 20.963 29.519 20.381V19.328C29.519 18.752 29.426 18.296 29.24 17.96C29.054 17.618 28.736 17.447 28.286 17.447C27.836 17.447 27.518 17.618 27.332 17.96C27.146 18.296 27.053 18.752 27.053 19.328V20.39C27.053 20.966 27.146 21.425 27.332 21.767C27.518 22.103 27.836 22.271 28.286 22.271Z" fill="#39A1B8"/>
<path d="M32.5934 18.167H32.5124V23H31.6304V16.718H32.9264L34.7714 21.551H34.8524V16.718H35.7344V23H34.4384L32.5934 18.167Z" fill="#39A1B8"/>
<path d="M37.0989 23V22.235H38.5749V17.483H37.0989V16.718H41.0589V17.483H39.5829V22.235H41.0589V23H37.0989Z" fill="#39A1B8"/>
<path d="M44.9794 17.564V23H43.9714V17.564H42.0004V16.718H46.9504V17.564H44.9794Z" fill="#39A1B8"/>
<path d="M49.8719 23.108C49.4759 23.108 49.1309 23.036 48.8369 22.892C48.5489 22.742 48.3089 22.529 48.1169 22.253C47.9309 21.977 47.7929 21.638 47.7029 21.236C47.6129 20.834 47.5679 20.375 47.5679 19.859C47.5679 19.349 47.6129 18.893 47.7029 18.491C47.7929 18.083 47.9309 17.741 48.1169 17.465C48.3089 17.189 48.5489 16.979 48.8369 16.835C49.1309 16.685 49.4759 16.61 49.8719 16.61C50.2679 16.61 50.6099 16.685 50.8979 16.835C51.1919 16.979 51.4319 17.189 51.6179 17.465C51.8099 17.741 51.9509 18.083 52.0409 18.491C52.1309 18.893 52.1759 19.349 52.1759 19.859C52.1759 20.375 52.1309 20.834 52.0409 21.236C51.9509 21.638 51.8099 21.977 51.6179 22.253C51.4319 22.529 51.1919 22.742 50.8979 22.892C50.6099 23.036 50.2679 23.108 49.8719 23.108ZM49.8719 22.271C50.3219 22.271 50.6399 22.103 50.8259 21.767C51.0119 21.425 51.1049 20.963 51.1049 20.381V19.328C51.1049 18.752 51.0119 18.296 50.8259 17.96C50.6399 17.618 50.3219 17.447 49.8719 17.447C49.4219 17.447 49.1039 17.618 48.9179 17.96C48.7319 18.296 48.6389 18.752 48.6389 19.328V20.39C48.6389 20.966 48.7319 21.425 48.9179 21.767C49.1039 22.103 49.4219 22.271 49.8719 22.271Z" fill="#39A1B8"/>
<path d="M54.3234 23H53.3244V16.718H55.6734C56.2734 16.718 56.7294 16.886 57.0414 17.222C57.3594 17.558 57.5184 18.02 57.5184 18.608C57.5184 19.088 57.4014 19.484 57.1674 19.796C56.9334 20.108 56.5974 20.3 56.1594 20.372L57.6084 23H56.4924L55.1604 20.462H54.3234V23ZM55.5294 19.652C56.1534 19.652 56.4654 19.367 56.4654 18.797V18.41C56.4654 17.84 56.1534 17.555 55.5294 17.555H54.3234V19.652H55.5294Z" fill="#39A1B8"/>
<path d="M62.1229 23L61.6459 21.326H59.6479L59.1709 23H58.1449L59.9809 16.718H61.3579L63.1939 23H62.1229ZM60.6829 17.735H60.6109L59.8369 20.489H61.4569L60.6829 17.735Z" fill="#39A1B8"/>
</svg>
